# xmcd
#
# Track frame offsets:
#	150
#	6696
#	16200
#	21319
#	59241
#	87641
#	100380
#	108699
#	114803
#	151297
#	167553
#	186159
#	209157
#	220550
#	229427
#	247846
#	257862
#	271404
#	280765
#
# Disc length: 4018 seconds
#
# Revision: 0
# Processed by: cddbd v1.5.2PL0 Copyright (c) Steve Scherf et al.
# Submitted via: EasyCDDAExtractor 2010.6.0.0
#
DISCID=1a0fb013
DTITLE=Margaret Phillips - Bach/Phillips: Organ Works 4-2
DYEAR=1900
DGENRE=Acapella
TTITLE0=Gelobet seist du BWV 722
TTITLE1=Gelobet seist du BWV 723
TTITLE2=Gott durch dein Gute BWV 724
TTITLE3=Toccata and Fugue in F BWV 540: Toccata
TTITLE4=Toccata and Fugue in F BWV 540: Fugue
TTITLE5=Allein Gott in der Hoh BWV 711
TTITLE6=Herr Christ der einig Gottes Sohn BWV Anh55
TTITLE7=Lobt Gott, ihr Christen, BWV 732
TTITLE8=Fantasia in a BWV 561
TTITLE9=Aria in F BWV 587
TTITLE10=Prelude and Fugue in f BWV 534: Prelude
TTITLE11=Prelude and Fugue in f BWV 534: Fugue
TTITLE12=Vom Himmel hoch BWV 700
TTITLE13=Das Jesulein soll doch BWV 702
TTITLE14=Wie schon leuchtet BWV 739
TTITLE15=Pastorale BWV 590/1
TTITLE16=Pastorale BWV 590/2
TTITLE17=Pastorale BWV 590/3
TTITLE18=Pastorale BWV 590/4
EXTD=
EXTT0=
EXTT1=
EXTT2=
EXTT3=
EXTT4=
EXTT5=
EXTT6=
EXTT7=
EXTT8=
EXTT9=
EXTT10=
EXTT11=
EXTT12=
EXTT13=
EXTT14=
EXTT15=
EXTT16=
EXTT17=
EXTT18=
PLAYORDER=
